<svg width="20" height="15" viewBox="0 0 20 15" fill="none" xmlns="http://www.w3.org/2000/svg">
<path d="M19.4687 2.1875C19.4687 1.125 18.5937 0.21875 17.5 0.21875H2.5C1.4375 0.21875 0.53125 1.09375 0.53125 2.1875V6.0625C0.53125 6.53125 0.6875 6.96875 0.96875 7.3125C0.6875 7.65625 0.53125 8.0625 0.53125 8.53125V12.5C0.53125 13.5625 1.375 14.4062 2.4375 14.4062H11.75C12.125 14.4062 12.4687 14.0937 12.4687 13.6875C12.4687 13.2812 12.1562 12.9688 11.75 12.9688H2.46875C2.1875 12.9688 1.96875 12.75 1.96875 12.4688V8.53125C1.96875 8.25 2.1875 8.03125 2.46875 8.03125H2.5H17.5H17.5312C17.8125 8.03125 18.0312 8.25 18.0312 8.53125V11.3125C18.0312 11.6875 18.3437 12.0312 18.75 12.0312C19.1562 12.0312 19.4687 11.7188 19.4687 11.3125V8.5625C19.4687 8.09375 19.3125 7.6875 19.0312 7.34375C19.3125 7 19.4687 6.5625 19.4687 6.09375V2.1875ZM2.5 6.625C2.1875 6.625 1.9375 6.375 1.9375 6.0625V2.1875C1.9375 1.875 2.1875 1.625 2.5 1.625H17.5C17.8125 1.625 18.0625 1.875 18.0625 2.1875V6.0625C18.0625 6.375 17.8125 6.625 17.5 6.625H2.5Z" fill="#030712"/>
</svg>
