<svg width="18" height="20" viewBox="0 0 18 20" fill="none" xmlns="http://www.w3.org/2000/svg">
<path d="M17.8125 17.25L17.25 11.5937C17.1563 10.5625 16.2813 9.78125 15.25 9.78125H2.75C1.71875 9.78125 0.875003 10.5625 0.750003 11.5937L0.187503 17.25C0.125003 17.8125 0.312503 18.375 0.687503 18.7812C1.0625 19.1875 1.59375 19.4375 2.15625 19.4375H15.7813C16.3438 19.4375 16.875 19.1875 17.25 18.7812C17.6875 18.375 17.8438 17.8125 17.8125 17.25ZM16.25 17.8437C16.125 17.9687 15.9688 18.0312 15.8125 18.0312H2.1875C2.03125 18.0312 1.875 17.9687 1.75 17.8437C1.625 17.7187 1.59375 17.5625 1.59375 17.375L2.15625 11.7188C2.1875 11.4063 2.4375 11.1875 2.75 11.1875H15.25C15.5625 11.1875 15.8125 11.4063 15.8438 11.7188L16.4063 17.375C16.4063 17.5625 16.375 17.7187 16.25 17.8437Z" fill="#01579B"/>
<path d="M9 12.2812C7.71875 12.2812 6.65625 13.3438 6.65625 14.625C6.65625 15.9375 7.71875 16.9688 9 16.9688C10.3125 16.9688 11.3438 15.9062 11.3438 14.625C11.3438 13.3438 10.3125 12.2812 9 12.2812ZM9 15.5625C8.46875 15.5625 8.0625 15.125 8.0625 14.625C8.0625 14.0938 8.5 13.6875 9 13.6875C9.53125 13.6875 9.9375 14.125 9.9375 14.625C9.9375 15.1562 9.53125 15.5625 9 15.5625Z" fill="#01579B"/>
<path d="M0.90625 6.4375C0.96875 7.8125 2.15625 8.53125 2.96875 8.53125H5.15625H5.1875C6.1875 8.46875 7.1875 7.8125 7.1875 6.4375V5.84375C8.25 5.84375 10.2812 5.84375 11.3125 5.84375V6.4375C11.3125 7.8125 12.3125 8.46875 13.3125 8.53125H15.5312C16.375 8.53125 17.5312 7.8125 17.5937 6.4375C17.5937 6.34375 17.5937 5.21875 17.5937 5.15625C17.5937 5.125 17.5937 5.09375 17.5937 5.0625C17.5 4.15625 17.1875 3.40625 16.625 2.8125L16.5937 2.78125C15.7812 2.03125 14.8437 1.625 14.125 1.375C12 0.5625 9.34375 0.5625 9.21875 0.5625C7.34375 0.59375 6.15625 0.75 4.34375 1.375C3.59375 1.65625 2.65625 2.0625 1.84375 2.78125L1.8125 2.8125C1.25 3.40625 0.9375 4.15625 0.84375 5.0625C0.84375 5.09375 0.84375 5.125 0.84375 5.15625C0.875 5.21875 0.90625 6.3125 0.90625 6.4375ZM2.84375 3.8125C3.46875 3.25 4.21875 2.9375 4.84375 2.6875C6.46875 2.09375 7.5 2 9.25 1.9375C9.40625 1.9375 11.7812 1.96875 13.6562 2.6875C14.3125 2.9375 15.0625 3.25 15.6562 3.8125C15.9687 4.15625 16.1562 4.625 16.2187 5.15625C16.2187 5.25 16.2187 6.28125 16.2187 6.375C16.1875 7.03125 15.5625 7.125 15.5625 7.125H13.4062C13.0937 7.09375 12.75 6.96875 12.75 6.4375V5.15625C12.75 4.84375 12.5625 4.5625 12.25 4.5C12.0312 4.375 6.5 4.375 6.28125 4.46875C6 4.5625 5.78125 4.84375 5.78125 5.125V6.4375C5.78125 6.96875 5.4375 7.09375 5.125 7.125H2.96875C2.96875 7.125 2.34375 7.03125 2.3125 6.40625C2.3125 6.3125 2.3125 5.96875 2.3125 5.65625C2.3125 5.4375 2.3125 5.28125 2.3125 5.1875C2.34375 4.59375 2.53125 4.15625 2.84375 3.8125Z" fill="#01579B"/>
</svg>
