<svg width="18" height="18" viewBox="0 0 18 18" fill="none" xmlns="http://www.w3.org/2000/svg">
<path d="M8.97278 5.48193H8.94551C8.61824 5.48193 8.31824 5.75466 8.31824 6.10921C8.31824 6.46375 8.59096 6.73648 8.94551 6.73648H8.97278C9.30006 6.73648 9.60006 6.46375 9.60006 6.10921C9.60006 5.75466 9.32733 5.48193 8.97278 5.48193Z" fill="#343D4C"/>
<path d="M8.97273 7.63647C8.64546 7.63647 8.34546 7.9092 8.34546 8.26375V12.4637C8.34546 12.791 8.61819 13.091 8.97273 13.091C9.30001 13.091 9.60001 12.8183 9.60001 12.4637V8.23647C9.60001 7.9092 9.32728 7.63647 8.97273 7.63647Z" fill="#343D4C"/>
<path d="M8.97274 0.763672C4.4182 0.763672 0.709106 4.44549 0.709106 9.00004C0.709106 13.5546 4.4182 17.2637 8.97274 17.2637C13.5273 17.2637 17.2091 13.5546 17.2091 9.00004C17.2091 4.44549 13.5273 0.763672 8.97274 0.763672ZM8.97274 16.0364C5.10002 16.0364 1.93638 12.8728 1.93638 9.00004C1.93638 5.12731 5.10002 1.96367 8.97274 1.96367C12.8455 1.96367 15.9818 5.12731 15.9818 9.00004C15.9818 12.8728 12.8455 16.0364 8.97274 16.0364Z" fill="#343D4C"/>
</svg>
