<svg width="20" height="15" viewBox="0 0 20 15" fill="none" xmlns="http://www.w3.org/2000/svg">
<path d="M18.75 10.2812H17.9063V2.46875C17.9063 1.15625 16.8438 0.0625 15.5 0.0625H4.5C3.1875 0.0625 2.09375 1.125 2.09375 2.46875V10.2812H1.25C0.875 10.2812 0.53125 10.5938 0.53125 11V12.3438C0.53125 13.8125 1.71875 14.9688 3.15625 14.9688H16.7813C18.25 14.9688 19.4063 13.7812 19.4063 12.3438V11C19.4688 10.5938 19.125 10.2812 18.75 10.2812ZM3.5 2.4375C3.5 1.875 3.9375 1.4375 4.5 1.4375H15.4688C16.0313 1.4375 16.4688 1.875 16.4688 2.4375V10.25H3.5V2.4375ZM18.0625 12.3125C18.0625 13 17.5 13.5312 16.8438 13.5312H3.1875C2.5 13.5312 1.96875 12.9688 1.96875 12.3125V11.6875H18.0625V12.3125Z" fill="#030712"/>
<path d="M10.5938 2.46875H9.40625C9.03125 2.46875 8.6875 2.78125 8.6875 3.1875C8.6875 3.59375 9 3.90625 9.40625 3.90625H10.5938C10.9688 3.90625 11.3125 3.59375 11.3125 3.1875C11.3125 2.78125 10.9688 2.46875 10.5938 2.46875Z" fill="#030712"/>
</svg>
