<svg width="20" height="18" viewBox="0 0 20 18" fill="none" xmlns="http://www.w3.org/2000/svg">
<path d="M19.2812 5.96875L16.8438 4.4375C16.5938 3.5625 15.7812 2.9375 14.8438 2.9375H14.4688L10.375 0.40625C10.1563 0.25 9.84375 0.25 9.625 0.40625L5.5 2.96875H5.125C4.1875 2.96875 3.375 3.59375 3.125 4.46875L0.6875 6C0.46875 6.125 0.34375 6.34375 0.34375 6.59375V15.625C0.34375 16.7813 1.28125 17.7188 2.4375 17.7188H17.5C18.6562 17.7188 19.5938 16.7813 19.5938 15.625V6.59375C19.625 6.34375 19.5 6.125 19.2812 5.96875ZM18.1875 7.8125L16.9375 8.28125V6.1875L18.1875 6.96875V7.8125ZM10 1.84375L11.8438 3H8.15625L10 1.84375ZM5.15625 4.375H5.71875H14.8438C15.1875 4.375 15.4688 4.625 15.5313 4.96875C15.5313 5 15.5313 8.78125 15.5313 8.78125L9.875 10.875L4.46875 8.90625V4.96875C4.53125 4.625 4.8125 4.375 5.15625 4.375ZM3.0625 6.1875V8.40625L1.8125 7.9375V6.96875L3.0625 6.1875ZM17.5 16.2813H2.5C2.125 16.2813 1.8125 15.9688 1.8125 15.5938V9.4375L9.65625 12.2813C9.71875 12.3125 9.8125 12.3125 9.90625 12.3125C10 12.3125 10.0625 12.3125 10.1562 12.2813L18.1875 9.3125V15.5938C18.1875 15.9688 17.9062 16.2813 17.5 16.2813Z" fill="#030712"/>
<path d="M10 9.625C11.2188 9.625 12.2187 8.625 12.2187 7.40625C12.2187 6.1875 11.2188 5.1875 10 5.1875C8.78125 5.1875 7.78125 6.1875 7.78125 7.40625C7.78125 8.625 8.78125 9.625 10 9.625ZM10 6.5625C10.4375 6.5625 10.8125 6.9375 10.8125 7.375C10.8125 7.8125 10.4375 8.1875 10 8.1875C9.5625 8.1875 9.1875 7.8125 9.1875 7.375C9.1875 6.9375 9.5625 6.5625 10 6.5625Z" fill="#030712"/>
</svg>
