<svg width="16" height="16" viewBox="0 0 16 16" fill="none" xmlns="http://www.w3.org/2000/svg">
<path d="M6.50002 9.62498C6.55002 9.64998 6.57502 9.72498 6.57502 9.79998V10.225C6.57502 10.95 7.17502 11.55 7.90002 11.55H8.12502C8.85002 11.55 9.45002 10.95 9.45002 10.225V9.77498C9.45002 9.69998 9.47502 9.64998 9.52502 9.62498C10.325 9.12498 10.825 8.24998 10.85 7.29998C10.875 6.54998 10.6 5.82498 10.075 5.27498C9.55002 4.72498 8.85002 4.39998 8.10002 4.37498C7.32502 4.34998 6.60002 4.64998 6.05002 5.17498C5.50002 5.72498 5.20002 6.42498 5.20002 7.19998C5.15002 8.19998 5.65002 9.09998 6.50002 9.62498ZM8.12502 10.4H7.90002C7.80002 10.4 7.70002 10.325 7.70002 10.2V9.99998H8.30002V10.225C8.30002 10.325 8.22502 10.4 8.12502 10.4ZM6.80002 5.97498C7.12502 5.64998 7.55002 5.49998 8.00002 5.49998C8.02502 5.49998 8.02502 5.49998 8.05002 5.49998C8.50002 5.49998 8.92502 5.69998 9.25002 6.04998C9.57502 6.39998 9.75002 6.82498 9.72502 7.27498C9.70002 7.84998 9.40002 8.37498 8.92502 8.67498C8.82502 8.72498 8.75002 8.79998 8.67502 8.87498H7.32502C7.25002 8.79998 7.17502 8.72498 7.10002 8.67498C6.60002 8.34998 6.30002 7.82498 6.30002 7.22498C6.27502 6.74998 6.47502 6.29998 6.80002 5.97498Z" fill="white"/>
<path d="M14.05 0.449951H1.95002C1.22502 0.449951 0.650024 1.02495 0.650024 1.74995V2.27495C0.650024 2.92495 1.12502 3.44995 1.72502 3.57495V11.55C1.72502 12.775 2.72502 13.8 3.97502 13.8H7.45002V15C7.45002 15.3 7.70002 15.575 8.02502 15.575C8.32502 15.575 8.60002 15.325 8.60002 15V13.775H12.075C13.3 13.775 14.325 12.775 14.325 11.525V3.57495C14.925 3.47495 15.4 2.92495 15.4 2.27495V1.74995C15.35 1.02495 14.775 0.449951 14.05 0.449951ZM1.77502 1.74995C1.77502 1.64995 1.85002 1.54995 1.97502 1.54995H14.075C14.175 1.54995 14.275 1.62495 14.275 1.74995V2.27495C14.275 2.37495 14.2 2.47495 14.075 2.47495H1.95002C1.85002 2.47495 1.75002 2.39995 1.75002 2.27495V1.74995H1.77502ZM13.15 11.525C13.15 12.15 12.65 12.65 12.025 12.65H3.95002C3.32502 12.65 2.82502 12.15 2.82502 11.525V3.59995H13.15V11.525Z" fill="white"/>
</svg>
