<svg width="20" height="16" viewBox="0 0 20 16" fill="none" xmlns="http://www.w3.org/2000/svg">
<path d="M17.5 0.375H2.5C1.4375 0.375 0.5625 1.25 0.5625 2.3125V13.6562C0.5625 14.7188 1.4375 15.5938 2.5 15.5938H17.5C18.5625 15.5938 19.4375 14.7188 19.4375 13.6562V2.34375C19.4375 1.25 18.5625 0.375 17.5 0.375ZM2.5 1.78125H17.5C17.8125 1.78125 18.0625 2.03125 18.0625 2.34375V3.8125H1.9375V2.34375C1.9375 2.03125 2.1875 1.78125 2.5 1.78125ZM17.5 14.2188H2.5C2.1875 14.2188 1.9375 13.9688 1.9375 13.6562V5.21875H18.0313V13.6562C18.0625 13.9688 17.8125 14.2188 17.5 14.2188Z" fill="#030712"/>
<path d="M9.5625 8.71875H11.25C11.625 8.71875 11.9375 8.40625 11.9375 8.03125C11.9375 7.65625 11.625 7.34375 11.25 7.34375H10.9375V7.3125C10.9375 6.9375 10.625 6.625 10.25 6.625C9.875 6.625 9.5625 6.9375 9.5625 7.3125V7.375C8.71875 7.40625 8.0625 8.0625 8.0625 8.90625V8.9375C8.0625 9.78125 8.75 10.4688 9.59375 10.4688H10.4375C10.5 10.4688 10.5625 10.5312 10.5625 10.5937V10.6875C10.5625 10.75 10.5 10.8125 10.4375 10.8125H8.75C8.375 10.8125 8.0625 11.125 8.0625 11.5C8.0625 11.875 8.375 12.1875 8.75 12.1875H9.5625V12.2188C9.5625 12.5938 9.875 12.9062 10.25 12.9062C10.625 12.9062 10.9375 12.5938 10.9375 12.2188V12.0625C11.5312 11.8438 11.9375 11.2813 11.9375 10.625V10.5312C11.9375 9.6875 11.25 9 10.4062 9H9.5625C9.5 9 9.4375 8.9375 9.4375 8.875V8.78125C9.4375 8.78125 9.5 8.71875 9.5625 8.71875Z" fill="#030712"/>
</svg>
