<svg width="16" height="16" viewBox="0 0 16 16" fill="none" xmlns="http://www.w3.org/2000/svg">
<path d="M12.15 15.575C11.475 15.575 10.7 15.4 9.85001 15.075C8.15002 14.4 6.27501 13.1 4.60001 11.425C2.92501 9.74997 1.62502 7.87497 0.950015 6.14997C0.200015 4.29997 0.275015 2.77497 1.15002 1.92497C1.17502 1.89997 1.22502 1.87497 1.25002 1.84997L3.35002 0.599971C3.87502 0.299971 4.55001 0.449971 4.90001 0.949971L6.37501 3.14997C6.72501 3.67497 6.57501 4.37497 6.07501 4.72497L5.17501 5.34997C5.82502 6.39997 7.67501 8.97497 10.625 10.825L11.175 10.025C11.6 9.42497 12.275 9.24997 12.825 9.62497L15.025 11.1C15.525 11.45 15.675 12.125 15.375 12.65L14.125 14.75C14.1 14.8 14.075 14.825 14.05 14.85C13.6 15.325 12.95 15.575 12.15 15.575ZM1.90002 2.77497C1.42502 3.29997 1.45002 4.37497 2.00002 5.74997C2.62502 7.32497 3.82502 9.04997 5.40001 10.625C6.95002 12.175 8.70002 13.375 10.25 14C11.6 14.55 12.675 14.575 13.225 14.1L14.425 12.05C14.425 12.025 14.425 12.025 14.425 12L12.225 10.525C12.225 10.525 12.175 10.55 12.125 10.625L11.575 11.425C11.225 11.925 10.55 12.075 10.05 11.75C6.90001 9.79997 4.95002 7.07497 4.25002 5.97497C3.92502 5.44997 4.05002 4.77497 4.55001 4.42497L5.45001 3.79997V3.77497L3.97502 1.57497C3.97502 1.54997 3.95002 1.54997 3.92502 1.57497L1.90002 2.77497Z" fill="white"/>
<path d="M14.65 7.12502C14.35 7.12502 14.125 6.90002 14.1 6.60002C13.9 4.07502 11.825 2.05002 9.27502 1.87502C8.97502 1.85002 8.72502 1.60002 8.75002 1.27502C8.77502 0.975017 9.02502 0.725017 9.35002 0.750017C12.45 0.950017 14.975 3.40002 15.225 6.50002C15.25 6.80002 15.025 7.07502 14.7 7.10002C14.7 7.12502 14.675 7.12502 14.65 7.12502Z" fill="white"/>
<path d="M12.175 7.35009C11.9 7.35009 11.65 7.15009 11.625 6.85009C11.475 5.50009 10.425 4.45009 9.07502 4.27509C8.77502 4.25009 8.55002 3.95009 8.57502 3.65009C8.60002 3.35009 8.90002 3.12509 9.20002 3.15009C11.075 3.37509 12.525 4.82509 12.75 6.70009C12.775 7.00009 12.575 7.27509 12.25 7.32509C12.2 7.35009 12.175 7.35009 12.175 7.35009Z" fill="white"/>
</svg>
