<svg width="20" height="19" viewBox="0 0 20 19" fill="none" xmlns="http://www.w3.org/2000/svg">
<path d="M17.3125 7.65625H9.8125C9.4375 7.65625 9.125 7.96875 9.125 8.34375C9.125 8.71875 9.4375 9.03125 9.8125 9.03125H17.3125C17.7187 9.03125 18.0312 9.34375 18.0312 9.75V16.1562C18.0312 16.5625 17.7187 16.875 17.3125 16.875H4.1875C3.78125 16.875 3.46875 16.5625 3.46875 16.1562V12.4062C3.46875 12.0312 3.15625 11.7187 2.78125 11.7187C2.40625 11.7187 2.09375 12.0312 2.09375 12.4062V16.1875C2.09375 17.375 3.0625 18.3125 4.21875 18.3125H17.3437C18.5312 18.3125 19.4687 17.3438 19.4687 16.1875V9.78125C19.4375 8.625 18.5 7.65625 17.3125 7.65625Z" fill="#030712"/>
<path d="M4.71872 12.0939L7.21872 13.9376C7.34372 14.0314 7.49997 14.0626 7.62497 14.0626C7.71872 14.0626 7.81247 14.0314 7.93747 14.0001C8.15622 13.9064 8.31247 13.6564 8.34372 13.4064L8.56247 10.3126C8.56247 10.1876 8.56247 10.0626 8.49997 9.96886L4.74997 1.90636C4.49997 1.40636 4.09372 1.00011 3.56247 0.812607C2.99997 0.625107 2.43747 0.625108 1.90622 0.875108L1.78122 0.937608C0.718719 1.43761 0.249969 2.68761 0.749969 3.75011L4.49997 11.8126C4.56247 11.9376 4.62497 12.0314 4.71872 12.0939ZM7.03122 12.0314L5.68747 11.0626L2.84372 4.96886L4.28122 4.28136L7.12497 10.4064L7.03122 12.0314ZM2.37497 2.21886L2.49997 2.15636C2.68747 2.06261 2.87497 2.06261 3.06247 2.12511C3.24997 2.18761 3.37497 2.31261 3.46872 2.50011L3.68747 3.00011L2.24997 3.68761L2.03122 3.18761C1.84372 2.81261 1.99997 2.37511 2.37497 2.21886Z" fill="#030712"/>
<path d="M15.8125 12.3125C16.1875 12.3125 16.5 12 16.5 11.625C16.5 11.25 16.1875 10.9375 15.8125 10.9375H12.8125C12.4375 10.9375 12.125 11.25 12.125 11.625C12.125 12 12.4375 12.3125 12.8125 12.3125H15.8125Z" fill="#030712"/>
<path d="M9.75 14.4375C9.75 14.8125 10.0625 15.125 10.4375 15.125H15.8125C16.1875 15.125 16.5 14.8125 16.5 14.4375C16.5 14.0625 16.1875 13.75 15.8125 13.75H10.4375C10.0625 13.75 9.75 14.0625 9.75 14.4375Z" fill="#030712"/>
</svg>
