<svg width="18" height="16" viewBox="0 0 18 16" fill="none" xmlns="http://www.w3.org/2000/svg">
<path d="M17 7.5L10.5312 0.9375C10.25 0.65625 9.8125 0.65625 9.53125 0.9375C9.25 1.21875 9.25 1.65625 9.53125 1.9375L14.7812 7.28125H1.5C1.125 7.28125 0.8125 7.59375 0.8125 7.96875C0.8125 8.34375 1.125 8.6875 1.5 8.6875H14.8437L9.53125 14.0938C9.25 14.375 9.25 14.8125 9.53125 15.0938C9.65625 15.2188 9.84375 15.2812 10.0312 15.2812C10.2187 15.2812 10.4062 15.2188 10.5312 15.0625L17 8.5C17.2812 8.21875 17.2812 7.78125 17 7.5Z" fill="#01579B"/>
</svg>
