<svg width="16" height="19" viewBox="0 0 16 19" fill="none" xmlns="http://www.w3.org/2000/svg">
<path d="M10.375 15.1562H5.625C5.25 15.1562 4.90625 15.4688 4.90625 15.875C4.90625 16.2813 5.21875 16.5938 5.625 16.5938H10.4062C10.7812 16.5938 11.125 16.2813 11.125 15.875C11.125 15.4688 10.7812 15.1562 10.375 15.1562Z" fill="#030712"/>
<path d="M5.53125 10.2188H10.4688C11.1875 10.2188 11.8125 9.625 11.8125 8.875V7.03125C11.8125 6.3125 11.2188 5.6875 10.4688 5.6875H5.53125C4.8125 5.6875 4.1875 6.28125 4.1875 7.03125V8.875C4.21875 9.59375 4.8125 10.2188 5.53125 10.2188ZM5.625 7.125H10.4062V8.8125H5.625V7.125Z" fill="#030712"/>
<path d="M3.3125 1.46875H14.375C14.75 1.46875 15.0938 1.15625 15.0938 0.75C15.0938 0.34375 14.7812 0.03125 14.375 0.03125H3.3125C2.0625 0.03125 1.0625 1 0.96875 2.21875C0.96875 2.25 0.96875 2.28125 0.96875 2.3125V17C0.96875 18.0625 1.875 18.9062 3 18.9062H13.2812C14.1562 18.9062 14.875 18.1875 14.875 17.3125V4.8125C14.875 3.9375 14.1562 3.21875 13.2812 3.21875H3.21875C2.6875 3.21875 2.375 2.90625 2.375 2.40625C2.34375 1.875 2.78125 1.46875 3.3125 1.46875ZM3.1875 4.625C3.1875 4.625 3.21875 4.625 3.1875 4.625C3.21875 4.625 3.21875 4.625 3.1875 4.625H13.25C13.3438 4.625 13.4375 4.71875 13.4375 4.8125V17.375C13.4375 17.4688 13.3438 17.5625 13.25 17.5625H2.96875C2.625 17.5625 2.34375 17.3438 2.34375 17.0625V4.5C2.59375 4.59375 2.875 4.625 3.1875 4.625Z" fill="#030712"/>
</svg>
