<svg width="20" height="21" viewBox="0 0 20 21" fill="none" xmlns="http://www.w3.org/2000/svg">
<path d="M19.4687 4.1875C19.4687 3.125 18.5937 2.21875 17.5 2.21875H2.5C1.4375 2.21875 0.53125 3.09375 0.53125 4.1875V8.0625C0.53125 8.53125 0.6875 8.96875 0.96875 9.3125C0.6875 9.65625 0.53125 10.0625 0.53125 10.5312V14.5C0.53125 15.5625 1.375 16.4062 2.4375 16.4062H11.75C12.125 16.4062 12.4687 16.0937 12.4687 15.6875C12.4687 15.2812 12.1562 14.9688 11.75 14.9688H2.46875C2.1875 14.9688 1.96875 14.75 1.96875 14.4688V10.5312C1.96875 10.25 2.1875 10.0312 2.46875 10.0312H2.5H17.5H17.5312C17.8125 10.0312 18.0312 10.25 18.0312 10.5312V13.3125C18.0312 13.6875 18.3437 14.0312 18.75 14.0312C19.1562 14.0312 19.4687 13.7188 19.4687 13.3125V10.5625C19.4687 10.0938 19.3125 9.6875 19.0312 9.34375C19.3125 9 19.4687 8.5625 19.4687 8.09375V4.1875ZM2.5 8.625C2.1875 8.625 1.9375 8.375 1.9375 8.0625V4.1875C1.9375 3.875 2.1875 3.625 2.5 3.625H17.5C17.8125 3.625 18.0625 3.875 18.0625 4.1875V8.0625C18.0625 8.375 17.8125 8.625 17.5 8.625H2.5Z" fill="#030712"/>
<path d="M5.03125 5.375C4.65625 5.375 4.3125 5.6875 4.3125 6.09375V6.125C4.3125 6.5 4.625 6.84375 5.03125 6.84375C5.4375 6.84375 5.75 6.53125 5.75 6.125V6.0625C5.75 5.6875 5.4375 5.375 5.03125 5.375Z" fill="#030712"/>
<path d="M15.6562 5.40625H13.625C13.25 5.40625 12.9062 5.71875 12.9062 6.125C12.9062 6.53125 13.2187 6.84375 13.625 6.84375H15.6562C16.0312 6.84375 16.375 6.53125 16.375 6.125C16.375 5.71875 16.0625 5.40625 15.6562 5.40625Z" fill="#030712"/>
<path d="M4.34375 12.4687V12.5313C4.34375 12.9063 4.65625 13.25 5.0625 13.25C5.46875 13.25 5.78125 12.9375 5.78125 12.5313V12.4687C5.78125 12.0937 5.46875 11.75 5.0625 11.75C4.65625 11.75 4.34375 12.0625 4.34375 12.4687Z" fill="#030712"/>
<path d="M17.7187 15.3439L15.5625 17.0626L15.0625 16.3751C14.8437 16.0626 14.4062 16.0001 14.0937 16.2189C13.7812 16.4376 13.7187 16.8751 13.9375 17.1876L14.875 18.4689C15 18.6251 15.1562 18.7189 15.3437 18.7501C15.375 18.7501 15.4062 18.7501 15.4375 18.7501C15.5937 18.7501 15.75 18.6876 15.875 18.5939L18.625 16.4376C18.9375 16.1876 18.9687 15.7501 18.75 15.4376C18.4687 15.1564 18.0312 15.0939 17.7187 15.3439Z" fill="#030712"/>
</svg>
